<svg width="111" height="111" viewBox="0 0 111 111" fill="none" xmlns="http://www.w3.org/2000/svg">
<path d="M27.0062 53.0578C27.3215 52.4167 27.4823 51.7013 27.474 50.9768C27.4657 50.2522 27.2887 49.5413 26.9589 48.9086C26.25 47.2356 25.4214 45.6239 24.4805 44.0878C23.0432 41.8009 21.458 39.6534 19.9201 37.4046C17.9659 34.5453 16.6671 31.2338 16.1287 27.7377C15.5205 23.8778 16.3385 19.916 18.4095 16.6906C20.4805 13.4653 23.6421 11.2295 27.225 10.4564C31.9569 9.43018 36.0974 10.7351 39.392 14.4093C40.9396 16.0999 42.2524 18.02 43.2899 20.1106C44.9934 23.6391 46.3479 27.3639 47.8621 31.0001C48.495 32.5078 48.8262 34.2182 50.5415 35.4914C50.7959 34.0535 51.0443 32.8372 51.2158 31.6082C51.6772 28.3521 51.896 25.0327 52.594 21.84C54.8535 11.4953 60.5081 4.21664 70.1553 1.13794C77.2946 -1.14258 84.0731 -0.084686 89.982 5.1225C94.8796 9.44916 96.4884 15.841 94.0278 22.1124C93.0879 24.4403 91.8691 26.6273 90.402 28.6182C86.4804 34.0851 81.5297 38.3675 76.2062 42.1683C74.2425 43.5683 72.3793 45.133 70.5339 46.6977C69.4728 47.6185 68.6568 48.8224 68.1679 50.1882C69.3114 49.9858 70.443 49.713 71.5571 49.371C74.3174 48.3152 77.06 47.2045 79.7848 46.0389C84.5817 43.9991 89.426 42.1557 94.572 41.4652C99.3453 40.8317 103.693 41.8516 107.39 45.3041C110.643 48.3384 111.82 52.9501 110.418 56.9664C109.509 59.4182 107.789 61.4255 105.586 62.6043C102.609 64.2939 99.4068 65.4819 96.0921 66.1265C89.9643 67.4505 83.7418 67.7988 77.5134 67.9572C74.7216 68.0269 71.9239 68.0079 69.1379 68.1029C68.0635 68.1171 66.9955 68.2832 65.9616 68.597C64.2996 69.1482 63.9269 70.6812 65.1986 71.9355C66.1121 72.7872 67.1568 73.4624 68.2862 73.9309C70.0074 74.6784 71.8351 75.1029 73.5682 75.8314C76.32 76.9113 79.0117 78.1591 81.6302 79.5689C86.6874 82.4829 90.2955 86.7905 91.7388 92.9099C93.2234 99.194 90.8752 105.275 85.5932 108.417C80.8613 111.243 75.8218 111.68 70.6344 110.071C64.3232 108.113 59.1595 104.249 54.8949 98.9723C53.0199 96.6538 51.346 94.1516 49.4059 91.8964C47.4658 89.6412 45.3897 87.5444 43.2603 85.5109C42.4148 84.8037 41.4598 84.2612 40.4389 83.9082C39.6756 83.5683 38.8412 83.4536 38.0226 83.5762C37.2039 83.6987 36.4309 84.054 35.7839 84.605C32.954 86.8391 30.4912 89.5623 28.4967 92.6629C26.3831 95.9443 24.2341 99.2004 22.0495 102.431C20.8206 104.332 19.1837 105.89 17.2762 106.973C13.3724 109.083 9.88848 107.189 9.12546 102.57C8.78663 100.747 9.02602 98.8538 9.80567 97.1922C10.9886 94.7407 12.2604 92.3524 13.6149 90.0086C14.7387 88.0575 16.0814 86.2521 17.2289 84.3073C17.5672 83.6541 17.7443 82.9194 17.7435 82.1725C17.7634 80.8247 17.5212 79.4872 17.0324 78.245C16.5437 77.0028 15.8189 75.8832 14.9043 74.9572C12.4437 72.2776 9.88257 69.7056 7.4338 67.0197C5.60722 65.0809 3.87954 63.0382 2.25827 60.9003C0.728999 58.8322 -0.0691296 56.2522 0.00469904 53.6153C0.134827 47.6733 4.94364 43.4036 10.3498 44.7086C12.2017 45.2645 13.9789 46.0736 15.6378 47.1158C18.2344 48.5791 20.7068 50.2832 23.3271 51.7402C24.5181 52.2855 25.7485 52.7261 27.0062 53.0578V53.0578Z" fill="#BBBEA0"/>
</svg>
